<svg width="66" height="66" viewBox="0 0 66 66" fill="none" xmlns="http://www.w3.org/2000/svg">
<circle cx="33" cy="33" r="32.5" fill="white" stroke="#C4C4C4"/>
<path d="M41.6575 43.752L41.6576 43.7559C41.6593 43.9777 41.606 44.1904 41.5103 44.3671C41.4146 44.5436 41.285 44.6694 41.1477 44.7419L41.14 44.746L41.1324 44.7504C41.0315 44.8083 40.9265 44.8357 40.8242 44.836C40.6511 44.8332 40.4692 44.7591 40.3132 44.601C40.3131 44.601 40.313 44.6009 40.313 44.6009L33.4352 37.6094L33.0788 37.247L32.7224 37.6094L25.8446 44.6009C25.6886 44.759 25.5065 44.8332 25.3334 44.836C25.2311 44.8357 25.1261 44.8083 25.0252 44.7504L25.0176 44.746L25.0099 44.7419C24.8726 44.6694 24.743 44.5436 24.6473 44.3671C24.5516 44.1904 24.4983 43.9777 24.5 43.7559H24.5001V43.752V23.168C24.5001 22.7007 24.6574 22.2662 24.918 21.9574C25.1764 21.6512 25.5068 21.5 25.8293 21.5H40.3283C40.6508 21.5 40.9812 21.6512 41.2396 21.9574C41.5002 22.2663 41.6576 22.7008 41.6576 23.168L41.6575 43.752Z" fill="#FFF279" stroke="black"/>
</svg>
