<svg width="66" height="66" viewBox="0 0 66 66" fill="none" xmlns="http://www.w3.org/2000/svg">
<circle cx="33" cy="33" r="32.5" fill="white" stroke="#C4C4C4"/>
<path d="M40.0528 22H25.5606C25.3198 21.999 25.0812 22.0543 24.8585 22.1627C24.6358 22.2712 24.4333 22.4307 24.2628 22.6322C24.0922 22.8336 23.9568 23.0729 23.8645 23.3365C23.7721 23.6001 23.7246 23.8826 23.7246 24.168V44.752C23.7272 45.0531 23.8014 45.3472 23.9387 45.6005C24.0761 45.8538 24.2709 46.0561 24.5009 46.184C24.6768 46.279 24.8678 46.3281 25.0611 46.328C25.3774 46.3265 25.6831 46.1934 25.9251 45.952L32.8033 38.96L39.6884 45.952C39.8841 46.138 40.1198 46.2557 40.3689 46.2918C40.618 46.3279 40.8706 46.281 41.0984 46.1563C41.3263 46.0317 41.5203 45.8343 41.6587 45.5862C41.7972 45.3382 41.8745 45.0493 41.8821 44.752V24.168C41.8821 23.593 41.6894 23.0416 41.3463 22.635C41.0033 22.2284 40.538 22 40.0528 22ZM40.8021 44.752C40.8021 44.8085 40.7889 44.8638 40.7638 44.9119C40.7388 44.9599 40.703 44.9988 40.6604 45.024C40.6163 45.0479 40.5673 45.0561 40.5193 45.0476C40.4714 45.0391 40.4266 45.0142 40.3903 44.976L33.1544 37.632C33.0591 37.5397 32.9399 37.4893 32.8169 37.4893C32.6938 37.4893 32.5746 37.5397 32.4794 37.632L25.2501 44.976C25.2141 45.0152 25.1691 45.041 25.1208 45.0501C25.0726 45.0593 25.0231 45.0515 24.9785 45.0276C24.934 45.0038 24.8963 44.9649 24.8702 44.9159C24.844 44.867 24.8306 44.8099 24.8316 44.752V24.168C24.8334 23.9318 24.9138 23.7059 25.0554 23.5396C25.197 23.3733 25.3883 23.28 25.5876 23.28H40.0798C40.1782 23.28 40.2757 23.303 40.3666 23.3476C40.4575 23.3922 40.5401 23.4576 40.6096 23.5401C40.6792 23.6226 40.7344 23.7205 40.7721 23.8282C40.8097 23.9359 40.8291 24.0514 40.8291 24.168L40.8021 44.752Z" fill="#28303F"/>
</svg>
