<svg width="66" height="66" viewBox="0 0 66 66" fill="none" xmlns="http://www.w3.org/2000/svg">
<circle cx="33" cy="33" r="32.5" fill="white" stroke="#C4C4C4"/>
<path d="M43.8123 41.7089L44.5373 41.9012L44.5373 41.9012L43.8123 41.7089ZM46.1767 32.792L45.4517 32.5998L45.4517 32.5998L46.1767 32.792ZM35.416 29.375L34.8036 28.942C34.6418 29.1709 34.6211 29.4709 34.75 29.7198C34.8788 29.9687 35.1357 30.125 35.416 30.125V29.375ZM37.4706 26.4693L38.0829 26.9023L38.0829 26.9023L37.4706 26.4693ZM32.4993 21.125V20.375C32.2371 20.375 31.9939 20.512 31.858 20.7363L32.4993 21.125ZM26.8582 30.433L27.4996 30.8217L27.4996 30.8217L26.8582 30.433ZM27.3154 43.5332L26.9163 44.1682L26.9163 44.1682L27.3154 43.5332ZM29.5715 44.9513L29.9706 44.3163L29.9706 44.3163L29.5715 44.9513ZM20.8327 28.75H23.7493V27.25H20.8327V28.75ZM25.916 30.75V43.125H27.416V30.75H25.916ZM23.7493 45.125H20.8327V46.625H23.7493V45.125ZM18.666 43.125V30.75H17.166V43.125H18.666ZM20.8327 45.125C19.5939 45.125 18.666 44.1886 18.666 43.125H17.166C17.166 45.099 18.8498 46.625 20.8327 46.625V45.125ZM25.916 43.125C25.916 44.1886 24.9882 45.125 23.7493 45.125V46.625C25.7322 46.625 27.416 45.099 27.416 43.125H25.916ZM23.7493 28.75C24.9882 28.75 25.916 29.6864 25.916 30.75H27.416C27.416 28.776 25.7322 27.25 23.7493 27.25V28.75ZM20.8327 27.25C18.8498 27.25 17.166 28.776 17.166 30.75H18.666C18.666 29.6864 19.5939 28.75 20.8327 28.75V27.25ZM32.8072 46.625H38.1532V45.125H32.8072V46.625ZM44.5373 41.9012L46.9016 32.9842L45.4517 32.5998L43.0874 41.5167L44.5373 41.9012ZM43.3471 28.625H35.416V30.125H43.3471V28.625ZM36.0284 29.808L38.0829 26.9023L36.8582 26.0363L34.8036 28.942L36.0284 29.808ZM34.437 20.375H32.4993V21.875H34.437V20.375ZM31.858 20.7363L26.2168 30.0442L27.4996 30.8217L33.1407 21.5137L31.858 20.7363ZM25.916 31.1152V42.3891H27.416V31.1152H25.916ZM26.9163 44.1682L29.1723 45.5863L29.9706 44.3163L27.7145 42.8982L26.9163 44.1682ZM25.916 42.3891C25.916 43.1197 26.3034 43.7829 26.9163 44.1682L27.7145 42.8982C27.516 42.7734 27.416 42.578 27.416 42.3891H25.916ZM46.9016 32.9842C47.5029 30.7166 45.6774 28.625 43.3471 28.625V30.125C44.8118 30.125 45.7709 31.396 45.4517 32.5998L46.9016 32.9842ZM38.1532 46.625C41.1429 46.625 43.7941 44.7039 44.5373 41.9012L43.0874 41.5167C42.5321 43.6108 40.5168 45.125 38.1532 45.125V46.625ZM32.8072 45.125C31.7942 45.125 30.8071 44.8421 29.9706 44.3163L29.1723 45.5863C30.2523 46.2651 31.517 46.625 32.8072 46.625V45.125ZM38.0829 26.9023C40.0974 24.0533 37.8726 20.375 34.437 20.375V21.875C36.8254 21.875 38.0742 24.3165 36.8582 26.0363L38.0829 26.9023ZM26.2168 30.0442C26.0209 30.3673 25.916 30.7366 25.916 31.1152H27.416C27.416 31.0151 27.4435 30.9141 27.4996 30.8217L26.2168 30.0442Z" fill="#28303F"/>
</svg>
