<svg width="66" height="66" viewBox="0 0 66 66" fill="none" xmlns="http://www.w3.org/2000/svg">
<circle cx="33" cy="33" r="32.5" fill="white" stroke="#C4C4C4"/>
<rect width="35" height="33" transform="translate(15 17)" fill="white"/>
<path d="M24.8333 26.875H21.9167C20.3058 26.875 19 28.1062 19 29.625V42C19 43.5188 20.3058 44.75 21.9167 44.75H24.8333C26.4442 44.75 27.75 43.5188 27.75 42V29.625C27.75 28.1062 26.4442 26.875 24.8333 26.875Z" fill="#0066FF" fill-opacity="0.58"/>
<path d="M39.2371 44.75H33.8912C32.7395 44.75 31.6137 44.4286 30.6554 43.8263L28.3994 42.4082C27.9937 42.1532 27.75 41.7239 27.75 41.2641V29.9902C27.75 29.7509 27.8162 29.5157 27.9421 29.308L33.5833 20H35.521C38.4329 20 40.1698 23.0599 38.5546 25.3443L36.5 28.25H44.4311C46.3286 28.25 47.7209 29.9313 47.2607 31.667L44.8963 40.5839C44.2471 43.0324 41.9139 44.75 39.2371 44.75Z" fill="#0066FF" fill-opacity="0.58"/>
<path d="M44.8963 40.5839L45.3796 40.7121L45.3796 40.7121L44.8963 40.5839ZM47.2607 31.667L46.7774 31.5388L46.7774 31.5388L47.2607 31.667ZM36.5 28.25L36.0917 27.9613C35.9839 28.1139 35.9701 28.3139 36.056 28.4799C36.1419 28.6458 36.3131 28.75 36.5 28.75V28.25ZM38.5546 25.3443L38.9628 25.6329L38.9628 25.6329L38.5546 25.3443ZM33.5833 20V19.5C33.4085 19.5 33.2464 19.5913 33.1557 19.7408L33.5833 20ZM27.9421 29.308L28.3697 29.5671L28.3697 29.5671L27.9421 29.308ZM28.3994 42.4082L28.1333 42.8315L28.1333 42.8315L28.3994 42.4082ZM30.6554 43.8263L30.9215 43.403L30.9215 43.403L30.6554 43.8263ZM21.9167 27.375H24.8333V26.375H21.9167V27.375ZM27.25 29.625V42H28.25V29.625H27.25ZM24.8333 44.25H21.9167V45.25H24.8333V44.25ZM19.5 42V29.625H18.5V42H19.5ZM21.9167 44.25C20.5539 44.25 19.5 43.2153 19.5 42H18.5C18.5 43.8222 20.0578 45.25 21.9167 45.25V44.25ZM27.25 42C27.25 43.2153 26.1961 44.25 24.8333 44.25V45.25C26.6922 45.25 28.25 43.8222 28.25 42H27.25ZM24.8333 27.375C26.1961 27.375 27.25 28.4097 27.25 29.625H28.25C28.25 27.8028 26.6922 26.375 24.8333 26.375V27.375ZM21.9167 26.375C20.0578 26.375 18.5 27.8028 18.5 29.625H19.5C19.5 28.4097 20.5539 27.375 21.9167 27.375V26.375ZM33.8912 45.25H39.2371V44.25H33.8912V45.25ZM45.3796 40.7121L47.744 31.7951L46.7774 31.5388L44.413 40.4558L45.3796 40.7121ZM44.4311 27.75H36.5V28.75H44.4311V27.75ZM36.9083 28.5387L38.9628 25.6329L38.1463 25.0556L36.0917 27.9613L36.9083 28.5387ZM35.521 19.5H33.5833V20.5H35.521V19.5ZM33.1557 19.7408L27.5145 29.0488L28.3697 29.5671L34.0109 20.2592L33.1557 19.7408ZM27.25 29.9902V41.2641H28.25V29.9902H27.25ZM28.1333 42.8315L30.3894 44.2496L30.9215 43.403L28.6655 41.9849L28.1333 42.8315ZM27.25 41.2641C27.25 41.9044 27.5895 42.4897 28.1333 42.8315L28.6655 41.9849C28.3979 41.8167 28.25 41.5433 28.25 41.2641H27.25ZM47.744 31.7951C48.2982 29.7049 46.6171 27.75 44.4311 27.75V28.75C46.0401 28.75 47.1435 30.1578 46.7774 31.5388L47.744 31.7951ZM39.2371 45.25C42.1226 45.25 44.6678 43.3967 45.3796 40.7121L44.413 40.4558C43.8264 42.668 41.7052 44.25 39.2371 44.25V45.25ZM33.8912 44.25C32.8319 44.25 31.7986 43.9543 30.9215 43.403L30.3894 44.2496C31.4288 44.9029 32.6471 45.25 33.8912 45.25V44.25ZM38.9628 25.6329C40.8442 22.9721 38.782 19.5 35.521 19.5V20.5C38.0839 20.5 39.4954 23.1476 38.1463 25.0556L38.9628 25.6329ZM27.5145 29.0488C27.342 29.3335 27.25 29.658 27.25 29.9902H28.25C28.25 29.8437 28.2904 29.698 28.3697 29.5671L27.5145 29.0488Z" fill="black"/>
</svg>
