<svg width="30" height="29" viewBox="0 0 30 29" fill="none" xmlns="http://www.w3.org/2000/svg">
<path d="M2.57193 21.6776L3.24161 20.9349L2.57193 21.6776ZM2.57193 14.6116L3.24161 15.3543L3.24161 15.3543L2.57193 14.6116ZM27.4281 21.6776L26.7584 20.9349L26.7584 20.9349L27.4281 21.6776ZM27.4281 14.6116L26.7584 15.3543L27.4281 14.6116ZM16 1C16 0.447715 15.5522 0 15 0C14.4477 0 14 0.447715 14 1H16ZM14 3.63763C14 4.18992 14.4477 4.63763 15 4.63763C15.5522 4.63763 16 4.18992 16 3.63763H14ZM28.2856 5.68434C28.6877 5.30565 28.7065 4.67277 28.3279 4.27076C27.9492 3.86875 27.3163 3.84986 26.9143 4.22855L28.2856 5.68434ZM24.8143 6.20677C24.4123 6.58547 24.3934 7.21835 24.7721 7.62036C25.1508 8.02236 25.7836 8.04126 26.1856 7.66257L24.8143 6.20677ZM3.08564 4.22855C2.68364 3.84986 2.05076 3.86875 1.67206 4.27076C1.29337 4.67277 1.31226 5.30565 1.71427 5.68434L3.08564 4.22855ZM3.81427 7.66257C4.21628 8.04126 4.84916 8.02236 5.22785 7.62036C5.60655 7.21835 5.58765 6.58547 5.18564 6.20677L3.81427 7.66257ZM26.7584 20.9349C23.9165 23.4976 19.6618 26.3763 15 26.3763V28.3763C20.4299 28.3763 25.161 25.0684 28.0978 22.4202L26.7584 20.9349ZM15 26.3763C10.3382 26.3763 6.08351 23.4976 3.24161 20.9349L1.90225 22.4202C4.83901 25.0684 9.57007 28.3763 15 28.3763V26.3763ZM3.24161 15.3543C6.08351 12.7916 10.3382 9.91289 15 9.91289V7.91289C9.57007 7.91289 4.83901 11.2208 1.90225 13.869L3.24161 15.3543ZM15 9.91289C19.6618 9.91289 23.9165 12.7916 26.7584 15.3543L28.0978 13.869C25.161 11.2208 20.4299 7.91289 15 7.91289V9.91289ZM3.24161 20.9349C1.58613 19.4421 1.58613 16.8471 3.24161 15.3543L1.90225 13.869C-0.634083 16.1561 -0.634081 20.1331 1.90225 22.4202L3.24161 20.9349ZM28.0978 22.4202C30.6341 20.1331 30.6341 16.1561 28.0978 13.869L26.7584 15.3543C28.4139 16.8471 28.4139 19.4421 26.7584 20.9349L28.0978 22.4202ZM18.2 18.1446C18.2 19.722 16.8244 21.101 15 21.101V23.101C17.8147 23.101 20.2 20.9374 20.2 18.1446H18.2ZM15 21.101C13.1755 21.101 11.8 19.722 11.8 18.1446H9.79996C9.79996 20.9374 12.1852 23.101 15 23.101V21.101ZM11.8 18.1446C11.8 16.5672 13.1755 15.1882 15 15.1882V13.1882C12.1852 13.1882 9.79996 15.3518 9.79996 18.1446H11.8ZM15 15.1882C16.8244 15.1882 18.2 16.5672 18.2 18.1446H20.2C20.2 15.3518 17.8147 13.1882 15 13.1882V15.1882ZM14 1V3.63763H16V1H14ZM26.9143 4.22855L24.8143 6.20677L26.1856 7.66257L28.2856 5.68434L26.9143 4.22855ZM1.71427 5.68434L3.81427 7.66257L5.18564 6.20677L3.08564 4.22855L1.71427 5.68434Z" fill="#28303F"/>
</svg>
